<svg width="18" height="10" viewBox="0 0 18 10" fill="none" xmlns="http://www.w3.org/2000/svg">
<path d="M1 4.325C0.627208 4.325 0.325 4.62721 0.325 5C0.325 5.37279 0.627208 5.675 1 5.675V4.325ZM17.4773 5.4773C17.7409 5.21369 17.7409 4.78631 17.4773 4.5227L13.1816 0.227029C12.918 -0.0365748 12.4906 -0.0365748 12.227 0.227029C11.9634 0.490633 11.9634 0.918019 12.227 1.18162L16.0454 5L12.227 8.81838C11.9634 9.08198 11.9634 9.50937 12.227 9.77297C12.4906 10.0366 12.918 10.0366 13.1816 9.77297L17.4773 5.4773ZM1 5.675H17V4.325H1V5.675Z" fill="white"/>
</svg>
